<?xml version="1.0" encoding="UTF-8"?>
<svg xmlns="http://www.w3.org/2000/svg" xmlns:xlink="http://www.w3.org/1999/xlink" width="300px" height="300px" viewBox="0 0 300 300" version="1.1">
<g id="surface1">
<path style=" stroke:none;fill-rule:nonzero;fill:rgb(0%,0%,0%);fill-opacity:1;" d="M 11.25 11.25 C -4.6875 27.1875 -4.6875 272.8125 11.25 288.75 C 27.1875 304.6875 272.8125 304.6875 288.75 288.75 C 304.6875 272.8125 304.6875 27.1875 288.75 11.25 C 272.8125 -4.6875 27.1875 -4.6875 11.25 11.25 Z M 225 75.9375 C 225 96.5625 207.1875 110.625 173.4375 114.375 C 156.5625 116.25 145.3125 122.8125 145.3125 131.25 C 145.3125 139.6875 151.875 144.375 162.1875 142.5 C 174.375 140.625 179.0625 144.375 176.25 156.5625 C 174.375 165.9375 164.0625 174.375 151.875 176.25 C 140.625 178.125 131.25 185.625 131.25 194.0625 C 131.25 206.25 138.75 208.125 173.4375 203.4375 C 203.4375 198.75 215.625 200.625 215.625 209.0625 C 214.6875 238.125 199.6875 244.6875 139.6875 241.875 L 79.6875 239.0625 L 80.625 196.875 C 81.5625 157.5 90 62.8125 92.8125 59.0625 C 92.8125 59.0625 123.75 58.125 159.375 59.0625 C 213.75 60 225 62.8125 225 75.9375 Z M 225 75.9375 "/>
</g>
</svg>
